PathFileType	4	(X/Y/Z)	/home/nbianco/repos/AddBiomechanics/server/engine/../data/Rajagopal2015/processed//results/MarkerData/walk.trc
DataRate	CameraRate	NumFrames	NumMarkers	Units	OrigDataRate	OrigDataStartFrame	OrigNumFrames
100	100	9	41	m	100	148	238
Frame#	Time	L.ASIS			L.Ankle			L.Biceps			L.Clavicle			L.Elbow			L.Forearm			L.Heel			L.Knee			L.MT5			L.PSIS			L.SH1			L.SH2			L.SH3			L.Shoulder			L.TH1			L.TH2			L.TH3			L.TH4			L.Toe			L.Wrist			R.ASIS			R.Ankle			R.Biceps			R.Clavicle			R.Elbow			R.Forearm			R.Heel			R.Knee			R.MT5			R.PSIS			R.SH1			R.SH2			R.SH3			R.SH4			R.Shoulder			R.TH1			R.TH2			R.TH3			R.Toe			R.Wrist			S2		
		X1	Y1	Z1	X2	Y2	Z2	X3	Y3	Z3	X4	Y4	Z4	X5	Y5	Z5	X6	Y6	Z6	X7	Y7	Z7	X8	Y8	Z8	X9	Y9	Z9	X10	Y10	Z10	X11	Y11	Z11	X12	Y12	Z12	X13	Y13	Z13	X14	Y14	Z14	X15	Y15	Z15	X16	Y16	Z16	X17	Y17	Z17	X18	Y18	Z18	X19	Y19	Z19	X20	Y20	Z20	X21	Y21	Z21	X22	Y22	Z22	X23	Y23	Z23	X24	Y24	Z24	X25	Y25	Z25	X26	Y26	Z26	X27	Y27	Z27	X28	Y28	Z28	X29	Y29	Z29	X30	Y30	Z30	X31	Y31	Z31	X32	Y32	Z32	X33	Y33	Z33	X34	Y34	Z34	X35	Y35	Z35	X36	Y36	Z36	X37	Y37	Z37	X38	Y38	Z38	X39	Y39	Z39	X40	Y40	Z40	X41	Y41	Z41

149	1.48	1.29766	0.979677	-0.396423	0.869013	0.152813	-0.364096	1.28779	1.29034	-0.507931	1.28848	1.45577	-0.272493	1.28446	1.16645	-0.539753	1.39758	1.08105	-0.516704	0.755435	0.10539	-0.319867	1.10886	0.508872	-0.39201	0.934788	0.0396957	-0.388443	1.09191	0.995436	-0.298173	1.08144	0.393894	-0.379285	1.00596	0.450273	-0.40945	0.937502	0.356841	-0.397757	1.24888	1.51191	-0.422716	1.28145	0.750308	-0.423832	1.25116	0.62656	-0.391134	1.18636	0.76923	-0.471303	1.14023	0.65097	-0.426955	1.03422	0.0493505	-0.283241	1.47716	1.00699	-0.483963	1.30724	0.994638	-0.141013	1.48321	0.108826	-0.152959	1.18793	1.22121	-0.0161047	1.28356	1.45454	-0.222166	1.12114	1.13893	-0.000245808	1.18726	1.00839	0.031964	1.43284	0.0238271	-0.205544	1.38636	0.51395	-0.127053	1.61349	0.062453	-0.115628	1.09389	0.991231	-0.207419	1.42665	0.427694	-0.124402	1.45302	0.318747	-0.120962	1.34706	0.402518	-0.122822	1.37473	0.286025	-0.126565	1.20325	1.48749	-0.0821503	1.34787	0.780183	-0.0716268	1.25116	0.730486	-0.0625141	1.29735	0.614376	-0.0969815	1.7091	0.128823	-0.210556	1.21689	0.88773	0.046201	1.08156	0.971225	-0.252149
150	1.49	1.31178	0.980001	-0.395575	0.875683	0.158245	-0.365379	1.30028	1.29074	-0.505843	1.30205	1.45651	-0.270395	1.29577	1.16668	-0.537451	1.40778	1.07963	-0.51539	0.760895	0.116044	-0.319818	1.12529	0.508549	-0.393211	0.935737	0.0404846	-0.388755	1.10679	0.995967	-0.296489	1.09491	0.393926	-0.381203	1.02086	0.452507	-0.410302	0.949731	0.361001	-0.398135	1.26207	1.51251	-0.420734	1.29638	0.750839	-0.423542	1.26685	0.626782	-0.391517	1.20116	0.769894	-0.470501	1.15593	0.650929	-0.427027	1.03428	0.0494087	-0.283493	1.48647	1.00418	-0.483193	1.32264	0.995012	-0.140554	1.48958	0.107195	-0.1521	1.20174	1.22113	-0.0142636	1.29656	1.45496	-0.220056	1.13562	1.13853	0.00131233	1.20162	1.00823	0.0328246	1.43363	0.0258666	-0.204936	1.39821	0.513964	-0.126235	1.61698	0.0552943	-0.117472	1.10927	0.992247	-0.205593	1.4399	0.427215	-0.124019	1.46482	0.317809	-0.120268	1.36004	0.40302	-0.121556	1.38641	0.286075	-0.125598	1.21699	1.48762	-0.079989	1.36199	0.779772	-0.0719209	1.26469	0.731207	-0.0621672	1.3088	0.614431	-0.0970204	1.71478	0.118465	-0.213318	1.23172	0.887635	0.0463901	1.09648	0.972144	-0.250291
151	1.5	1.32605	0.980781	-0.394732	0.883666	0.164256	-0.36652	1.31251	1.29137	-0.503836	1.31557	1.45749	-0.268337	1.30711	1.16726	-0.535164	1.41776	1.07841	-0.51418	0.768071	0.128248	-0.319416	1.14318	0.508124	-0.394746	0.936632	0.0419362	-0.388454	1.12153	0.99687	-0.294778	1.10993	0.39422	-0.383622	1.03707	0.455152	-0.410973	0.963334	0.36584	-0.398178	1.27515	1.51343	-0.418735	1.31206	0.751833	-0.423336	1.28353	0.627201	-0.392244	1.21672	0.770784	-0.46962	1.17258	0.650861	-0.427393	1.03446	0.0494992	-0.283851	1.49519	1.00143	-0.482683	1.33812	0.995661	-0.140383	1.49451	0.105818	-0.151352	1.21569	1.22139	-0.0123785	1.30921	1.45523	-0.218101	1.15015	1.13866	0.00266681	1.21635	1.0083	0.0336873	1.43465	0.0276727	-0.204684	1.41211	0.514467	-0.125739	1.62025	0.0493066	-0.118342	1.1244	0.993573	-0.20373	1.45357	0.427027	-0.123784	1.47547	0.316577	-0.119611	1.37289	0.404401	-0.119732	1.39693	0.286629	-0.124412	1.23097	1.48797	-0.0779381	1.37605	0.779838	-0.0721408	1.27804	0.732482	-0.0620284	1.32051	0.614866	-0.096123	1.7197	0.109145	-0.214313	1.2468	0.887816	0.0467063	1.11132	0.973301	-0.24842
152	1.51	1.34021	0.981823	-0.393868	0.893359	0.170858	-0.367567	1.32439	1.29226	-0.501895	1.32865	1.45847	-0.266398	1.31816	1.16816	-0.532939	1.42746	1.07744	-0.513072	0.777038	0.142189	-0.318809	1.16284	0.507499	-0.396711	0.938299	0.0440516	-0.388212	1.13605	0.997994	-0.292993	1.12646	0.394649	-0.386662	1.05476	0.458247	-0.411283	0.978478	0.371252	-0.397915	1.28805	1.51461	-0.416631	1.3285	0.75321	-0.423098	1.30142	0.627714	-0.393423	1.23288	0.771815	-0.468771	1.19021	0.650643	-0.428185	1.0351	0.0495473	-0.2843	1.50359	0.998748	-0.482508	1.35332	0.996587	-0.140354	1.49872	0.104728	-0.150701	1.23005	1.22189	-0.0105704	1.32244	1.45602	-0.216227	1.16482	1.13902	0.00417424	1.23161	1.00866	0.0346338	1.43586	0.0288907	-0.204442	1.42741	0.515193	-0.125587	1.62315	0.0445459	-0.118134	1.13909	0.9951	-0.20179	1.46654	0.42717	-0.124087	1.48527	0.315644	-0.119391	1.38505	0.406129	-0.117718	1.40613	0.287733	-0.122687	1.2449	1.4886	-0.0758564	1.39044	0.780392	-0.072122	1.29169	0.734044	-0.061667	1.3335	0.615773	-0.0943647	1.7242	0.10092	-0.213469	1.26223	0.888178	0.0471942	1.12604	0.974656	-0.246498
153	1.52	1.35415	0.983086	-0.392796	0.905215	0.177975	-0.368393	1.33626	1.29336	-0.499888	1.34179	1.45961	-0.264568	1.32882	1.16938	-0.530735	1.43685	1.07667	-0.512118	0.788237	0.15801	-0.318153	1.18414	0.506476	-0.399181	0.940868	0.047207	-0.388139	1.15055	0.999201	-0.291186	1.14444	0.394913	-0.389958	1.07425	0.461464	-0.411147	0.995645	0.376873	-0.397463	1.30074	1.51601	-0.414626	1.34555	0.755057	-0.422618	1.32043	0.628333	-0.395151	1.24952	0.772863	-0.467915	1.20871	0.650163	-0.429265	1.03629	0.0492525	-0.2849	1.51165	0.99616	-0.482732	1.36804	0.997741	-0.140301	1.50258	0.103907	-0.150215	1.24467	1.2226	-0.0088684	1.33596	1.4572	-0.214339	1.17978	1.13954	0.00582937	1.24712	1.00924	0.0357114	1.43662	0.0297034	-0.20412	1.44202	0.515899	-0.125441	1.62542	0.0406444	-0.117503	1.15382	0.996568	-0.19986	1.47816	0.427198	-0.12419	1.49464	0.315075	-0.119314	1.3964	0.407659	-0.115634	1.4149	0.288822	-0.120193	1.25866	1.48947	-0.0737928	1.40535	0.781545	-0.0715812	1.30628	0.735842	-0.0607028	1.34815	0.61722	-0.0922084	1.72778	0.0935439	-0.212485	1.278	0.888844	0.0477566	1.14074	0.976057	-0.244569
154	1.53	1.36768	0.984489	-0.391557	0.919017	0.185624	-0.368865	1.34805	1.29467	-0.498006	1.35524	1.461	-0.262875	1.33938	1.17077	-0.52863	1.44591	1.07604	-0.51148	0.801851	0.175357	-0.317829	1.20689	0.505185	-0.401915	0.944513	0.0517515	-0.388252	1.16459	1.00052	-0.289389	1.16404	0.394969	-0.393049	1.09572	0.464373	-0.410821	1.015	0.382208	-0.397004	1.31317	1.51752	-0.412769	1.36298	0.757105	-0.421997	1.34061	0.629217	-0.397363	1.26649	0.773841	-0.467091	1.22851	0.649369	-0.430649	1.03792	0.0484178	-0.285603	1.51935	0.993811	-0.483218	1.38257	0.999103	-0.139992	1.50583	0.103353	-0.150009	1.25945	1.22345	-0.00723554	1.34926	1.45844	-0.212569	1.19479	1.14027	0.00761293	1.26295	1.01005	0.0368027	1.43734	0.0303412	-0.203936	1.45519	0.516593	-0.125103	1.62728	0.0378105	-0.117258	1.16831	0.998053	-0.197935	1.48906	0.426848	-0.124076	1.50363	0.314625	-0.119212	1.40721	0.408942	-0.113381	1.42357	0.289777	-0.117478	1.27247	1.49042	-0.0718071	1.42007	0.783171	-0.070827	1.32166	0.737831	-0.0589892	1.36375	0.618942	-0.0901472	1.73037	0.0872504	-0.212687	1.29419	0.889806	0.0483044	1.1551	0.977354	-0.24261
155	1.54	1.38081	0.985788	-0.390292	0.934507	0.193987	-0.369019	1.35943	1.29605	-0.496254	1.36851	1.46241	-0.261279	1.3498	1.17223	-0.526636	1.45466	1.07553	-0.511087	0.817801	0.193892	-0.318087	1.23075	0.503895	-0.404687	0.949749	0.0578243	-0.388504	1.17816	1.00173	-0.287666	1.18501	0.39465	-0.395747	1.11914	0.466681	-0.410935	1.03602	0.38698	-0.396674	1.32556	1.51912	-0.410983	1.38076	0.759108	-0.42165	1.36179	0.630365	-0.399732	1.28377	0.774595	-0.466463	1.24921	0.648342	-0.432281	1.04109	0.0472594	-0.286556	1.52677	0.991635	-0.483917	1.39688	1.00066	-0.13938	1.50857	0.103135	-0.150058	1.27448	1.22439	-0.00559956	1.36265	1.45976	-0.210952	1.21006	1.14114	0.00956458	1.2791	1.0111	0.0377031	1.43792	0.0309538	-0.203905	1.46715	0.517404	-0.124538	1.62883	0.0362722	-0.117448	1.18227	0.999365	-0.196076	1.49995	0.426593	-0.123829	1.51244	0.314256	-0.119145	1.41795	0.41023	-0.111154	1.43205	0.290785	-0.115363	1.28657	1.49142	-0.0699296	1.43441	0.785342	-0.0706481	1.33659	0.739531	-0.0566528	1.37883	0.620677	-0.0882866	1.73236	0.0822739	-0.213649	1.31087	0.891001	0.0489514	1.16904	0.97847	-0.240724
156	1.55	1.39371	0.987026	-0.388969	0.951289	0.202752	-0.369105	1.37041	1.2974	-0.49467	1.38125	1.46368	-0.259849	1.36001	1.17368	-0.524782	1.46318	1.07519	-0.510847	0.835912	0.213252	-0.318419	1.25536	0.502732	-0.407259	0.956367	0.0653162	-0.388691	1.19131	1.00265	-0.286055	1.20701	0.394102	-0.398163	1.14355	0.468568	-0.411768	1.05793	0.391612	-0.39689	1.33769	1.52076	-0.409284	1.39853	0.761012	-0.421627	1.38325	0.631669	-0.402102	1.30146	0.775034	-0.466147	1.27033	0.64716	-0.434019	1.04644	0.0460452	-0.287651	1.53403	0.989542	-0.484948	1.41071	1.00234	-0.138506	1.51082	0.103185	-0.15031	1.28988	1.22544	-0.00394337	1.37591	1.46098	-0.209514	1.22547	1.14206	0.0116153	1.29557	1.01239	0.0384379	1.43828	0.0315101	-0.203974	1.47831	0.518244	-0.123865	1.62996	0.0355147	-0.117662	1.19593	1.00042	-0.194442	1.51038	0.426448	-0.123723	1.52094	0.313867	-0.119158	1.42835	0.411912	-0.109288	1.44	0.292186	-0.114032	1.30083	1.49246	-0.0681408	1.44779	0.787348	-0.0708699	1.35032	0.740885	-0.0541745	1.39209	0.622238	-0.0867423	1.73385	0.0784562	-0.214475	1.32817	0.892445	0.0496613	1.18243	0.979305	-0.239049
157	1.56	1.40627	0.988393	-0.387609	0.969577	0.211619	-0.369141	1.38124	1.29879	-0.49325	1.3939	1.46491	-0.258662	1.36987	1.17505	-0.523106	1.47163	1.07497	-0.510789	0.85671	0.232525	-0.318531	1.28022	0.501458	-0.409343	0.964178	0.0742701	-0.388633	1.20424	1.00313	-0.284659	1.2295	0.393974	-0.400455	1.16848	0.470285	-0.413155	1.08069	0.39604	-0.397437	1.34961	1.52238	-0.407744	1.41621	0.763261	-0.421709	1.4049	0.633304	-0.404366	1.31905	0.775235	-0.466215	1.29152	0.645904	-0.435751	1.05304	0.0446757	-0.28899	1.54109	0.987582	-0.486315	1.42423	1.00424	-0.137357	1.51244	0.103231	-0.150689	1.30533	1.22653	-0.00227935	1.38897	1.4622	-0.208292	1.24105	1.14298	0.0137638	1.31223	1.01358	0.0398307	1.43858	0.0321002	-0.203996	1.48911	0.519008	-0.123306	1.63026	0.0345567	-0.117681	1.20909	1.00145	-0.193099	1.52013	0.426272	-0.123776	1.52877	0.313491	-0.119282	1.43798	0.413685	-0.1079	1.44701	0.29386	-0.1133	1.31504	1.49351	-0.0665419	1.46022	0.788311	-0.0700229	1.36301	0.741845	-0.0521407	1.40319	0.623373	-0.0855631	1.73488	0.0753478	-0.214929	1.3456	0.893865	0.0505218	1.1954	0.979957	-0.237535
